<?xml version="1.0" encoding="UTF-8" standalone="no"?>
<svg width="64" height="64" viewBox="0 0 64 64" version="1.1" xmlns="http://www.w3.org/2000/svg">
  <path d="M 24.753906,4.953125 C 11.874748,8.4040851 3.1884952,20.527093 4.0605469,33.832031 4.9325983,47.136969 15.126287,58.019396 28.345703,59.759766 41.565119,61.500135 54.227763,53.62588 58.513672,41 62.799581,28.374121 57.547137,14.418697 46,7.7519531 L 42,14.679688 C 50.284448,19.462716 54.014362,29.3713 50.939453,38.429687 47.864545,47.488075 38.87289,53.076746 29.388672,51.828125 19.904454,50.579504 12.668619,42.854169 12.042969,33.308594 11.417319,23.763018 17.584117,15.157518 26.824219,12.681641 Z"
        style="fill:#a0a0a0;stroke:none"/>
<path d="M 31.418566,2.7714955 57.603718,4.5421423 42.977717,26.333826 Z"
      style="fill:#a0a0a0;stroke:none;"/>
</svg>
