<?xml version="1.0" encoding="UTF-8" standalone="no"?>
<svg width="64" height="64" viewBox="0 0 16.933333 16.933334" version="1.1" xmlns="http://www.w3.org/2000/svg">
    <path d="M 2.3523002,8.8180552 0.7358585,9.3100157 q -0.63252068,0.1757002 -0.63252068,0.8433613 0,0.84336 0.84336091,0.84336 0.28112027,0 1.40560147,-0.42168 v 3.795124 q 0,0.491961 -0.4216804,0.491961 H 1.5440794 q -1.01906113,0 -1.01906113,0.878501 0,0.8785 1.01906113,0.8785 h 0.5271005 q 2.0381222,0 2.0381222,-2.108402 V 10.012816 L 5.0932232,9.6614161 q 0.4919605,-0.1757002 0.4919605,-0.7730809 0,-0.8433609 -0.8433609,-0.8433609 -0.1757002,0 -0.6325207,0.2108403 V 5.1634912 h 0.913641 q -0.1405602,0.1932703 -0.1405602,0.4919606 0,0.8433609 0.8433609,0.8433609 0.2459803,0 0.4216805,-0.07028 V 10.926457 H 5.4797636 q -0.878501,0 -0.878501,0.737941 0,0.737941 0.878501,0.737941 h 3.9005441 q -1.5110216,1.967842 -4.2168045,2.530083 -0.6325206,0.12299 -0.6325206,0.773081 0,0.84336 0.8433609,0.84336 0.2635502,0 0.5622406,-0.07028 2.9166231,-0.7028 4.8493249,-3.092323 1.827282,2.319243 4.287085,3.022043 0.49196,0.14056 0.773081,0.14056 0.843361,0 0.843361,-0.84336 0,-0.702801 -0.702801,-0.843361 -2.213823,-0.491961 -3.865404,-2.459803 h 3.830264 q 0.878501,0 0.878501,-0.737941 0,-0.737941 -0.878501,-0.737941 H 15.424394 V 6.2176924 q 0,-1.827282 -2.038122,-1.827282 h -0.702801 q 0.386541,-0.3865404 0.702801,-0.7730808 0.491961,-0.6149507 0.491961,-0.9839211 0,-0.9136409 -1.757002,-0.9136409 H 9.8019882 L 9.9425483,1.4386473 q 0.07028,-0.1405602 0.07028,-0.3514004 0,-0.77308083 -0.8433605,-0.77308083 -0.4919605,0 -0.7730808,0.5622406 Q 7.2016254,3.3010693 5.3743435,4.8823709 5.5149036,4.6363907 5.5149036,4.3552704 q 0,-0.8082209 -0.948781,-0.8082209 H 4.1093021 V 1.3332272 q 0,-1.01906113 -0.8785009,-1.01906113 -0.878501,0 -0.878501,1.01906113 V 3.5470495 H 1.192679 q -0.94878103,0 -0.94878103,0.8082209 0,0.8082208 0.94878103,0.8082208 H 2.3523002 Z M 13.807952,8.0449743 h -0.63252 q -0.632521,0 -0.632521,-0.4919605 V 5.866292 h 0.702801 q 0.56224,0 0.56224,0.4919605 z M 8.2558265,4.3904104 Q 8.6423669,3.8633099 9.0991874,3.1956491 H 11.50628 q 0.15813,0 0.15813,0.08785 0,0.1054202 -0.12299,0.2635503 -0.29869,0.3865404 -0.755511,0.8433609 z M 7.763866,8.5369349 V 6.3582525 q 0,-0.4919605 0.5622406,-0.4919605 h 0.5622406 q 0,1.7218618 -1.1244812,2.6706429 z m 0,2.3895221 V 9.3100157 q 0.1229901,0.4216804 0.7028008,0.4216804 0.2986903,0 0.7028007,-0.4216804 Q 10.293949,8.1503944 10.293949,5.866292 h 0.843361 v 1.827282 q 0,1.897562 1.897562,1.897562 h 0.77308 v 1.335321 H 11.48871 v -0.7028 q 0,-0.9839214 -0.843361,-0.9839214 -0.8433608,0 -0.8433608,0.9839214 v 0.7028 z"/>
</svg>
