<?xml version="1.0" encoding="UTF-8" standalone="no"?>
<svg width="64" height="64" viewBox="0 0 64 64" version="1.1" xmlns="http://www.w3.org/2000/svg">
  <path d="m 35.2544,10.95365 c 0.361,-0.4797 0.723,-0.8394 1.205,-1.3191 0.482,-0.3598 1.085,-0.5996 1.688,-0.4797 h 4.459 c 0.964,0 1.808,0.8394 1.808,1.7988 v 42.6923 c 0,0.9594 -0.844,1.7989 -1.808,1.7989 h -5.424 c -0.964,0 -1.808,-0.8395 -1.808,-1.7989 v -25.9032 l -8.677,14.8704 c -0.724,1.0793 -1.567,1.6789 -2.411,1.6789 h -3.495 c -0.964,0 -1.687,-0.5996 -2.411,-1.6789 l -8.436,-14.8704 v 25.7833 c 0,0.9594 -0.844,1.7989 -1.808,1.7989 h -5.424 c -0.9641,0 -1.8078,-0.8395 -1.8078,-1.7989 v -42.5724 c 0,-0.4797 0.2411,-0.9594 0.4821,-1.1992 0.3616,-0.3598 0.7232,-0.4797 1.2057,-0.4797 h 4.459 c 0.603,0 1.205,0.1199 1.687,0.4797 0.482,0.3598 0.844,0.8395 1.206,1.3191 l 12.655,21.8259 z"/>
  <path d="m 62.6134,9.03485 c 0.361,0.3598 0.482,0.8395 0.482,1.1992 v 5.1567 c 0,0.9594 -0.844,1.7988 -1.808,1.7988 h -5.665 c -0.964,0 -1.808,-0.8394 -1.808,-1.7988 v -5.1567 c 0,-0.4797 0.241,-0.9594 0.483,-1.1992 0.361,-0.3598 0.723,-0.4797 1.205,-0.4797 h 5.664 c 0.603,0 1.085,0.1199 1.447,0.4797 z m -0.362,45.8103 c -0.361,0.3598 -0.723,0.4797 -1.205,0.4797 h -5.062 c -0.964,0 -1.808,-0.8395 -1.808,-1.7988 v -30.7001 c 0,-0.9594 0.844,-1.7989 1.808,-1.7989 h 5.062 c 0.964,0 1.808,0.8395 1.808,1.7989 v 30.7001 c 0,0.4796 -0.241,0.9593 -0.603,1.3191 z"/>
</svg>
