<?xml version="1.0" encoding="UTF-8" standalone="no"?>
<svg width="64" height="64" viewBox="0 0 16.933333 16.933334" version="1.1" xmlns="http://www.w3.org/2000/svg">
    <path d="m 15.635234,5.4446115 q 0,-1.7570018 -2.178682,-1.7570018 H 4.6715427 q -2.2489624,0 -2.2489624,1.7570018 v 4.0762444 q 0,2.7409231 -1.82728195,4.9371751 -0.35140038,0.421681 -0.35140038,0.843361 0,0.896071 0.93121103,0.896071 0.4919605,0 0.8960709,-0.49196 1.5813017,-2.020553 2.1084023,-4.638485 h 4.3573646 q -0.8960709,2.565222 -4.2695145,3.619423 -0.6500907,0.228411 -0.6500907,0.913641 0,0.878501 0.931211,0.878501 0.3689704,0 0.7555108,-0.14056 3.1801734,-1.177191 4.6384849,-4.076244 1.8097117,2.793633 4.6384847,4.005964 0.491961,0.21084 0.843361,0.21084 0.983921,0 0.983921,-0.931211 0,-0.68523 -0.68523,-0.948781 -2.828774,-0.983921 -4.515495,-3.531573 h 4.357364 q 0.913641,0 0.913641,-0.773081 0,-0.7730811 -0.913641,-0.7730811 h -4.989885 q 0.07028,-0.5271006 0.07028,-1.1947613 h 2.811203 q 2.178682,0 2.178682,-1.7570018 z M 4.3201423,6.779933 V 5.5851717 q 0,-0.3514004 0.4919606,-0.3514004 h 8.5038891 q 0.49196,0 0.49196,0.3514004 v 0.8433609 q 0,0.3514004 -0.49196,0.3514004 z m 0,2.7409229 V 8.3260946 h 4.5682049 q 0,0.6676607 -0.07028,1.1947613 z M 1.9657598,0.87640667 q -0.948781,0 -0.948781,0.80822083 0,0.8082209 0.948781,0.8082209 H 15.740655 q 0.948781,0 0.948781,-0.8082209 0,-0.80822083 -0.948781,-0.80822083 z"/>
</svg>
